<svg data-bbox="12.816 12.816 174.368 174.368" xmlns="http://www.w3.org/2000/svg" width="200" height="200" viewBox="0 0 200 200" data-type="shape">
    <g fill="white">
        <path d="M100 12.816c-48.073 0-87.184 39.111-87.184 87.184s39.11 87.184 87.184 87.184 87.184-39.111 87.184-87.184S148.073 12.816 100 12.816zm0 168.651c-44.921 0-81.467-36.546-81.467-81.467S55.079 18.533 100 18.533 181.467 55.079 181.467 100 144.921 181.467 100 181.467z"/>
        <path d="M91.832 79.142L89.3 77.815l-2.653 5.065 2.532 1.326 25.196 13.199H72.403l.17 5.714h41.973l-24.364 14.679-2.449 1.475 2.951 4.897 2.448-1.475 33.711-20.31 4.352-2.622-4.501-2.358-34.862-18.263z"/>
    </g>
</svg>
